<svg version="1.1" xmlns="http://www.w3.org/2000/svg" viewBox="0 0 133.9487192810957 108.30538044551486" height="100" width="100"><metadata></metadata>
  <defs>
    <style class="style-fonts"></style>
  </defs>
  <rect x="0" y="0" width="133.9487192810957" height="108.30538044551486" fill="none">
  </rect>
  <g stroke-linecap="round">
  <g transform="translate(67.32517175041357 62.09692780595924) rotate(13.637074899327027 -0.6195348629662476 4.994747909444868)" fill-rule="evenodd">
  <path d="M0 0 C1.14 -0.1, 5.92 -2.03, 6.82 -0.6 C7.72 0.83, 6.72 6.73, 5.4 8.59 C4.07 10.45, 1.12 11.4, -1.13 10.59 C-3.37 9.77, -8.24 5.45, -8.06 3.68 C-7.87 1.92, -1.34 0.61, 0 0" stroke="none" stroke-width="0" fill="#22c55e" fill-rule="evenodd"></path>
  <path d="M0 0 C1.14 -0.1, 5.92 -2.03, 6.82 -0.6 C7.72 0.83, 6.72 6.73, 5.4 8.59 C4.07 10.45, 1.12 11.4, -1.13 10.59 C-3.37 9.77, -8.24 5.45, -8.06 3.68 C-7.87 1.92, -1.34 0.61, 0 0 M0 0 C1.14 -0.1, 5.92 -2.03, 6.82 -0.6 C7.72 0.83, 6.72 6.73, 5.4 8.59 C4.07 10.45, 1.12 11.4, -1.13 10.59 C-3.37 9.77, -8.24 5.45, -8.06 3.68 C-7.87 1.92, -1.34 0.61, 0 0" stroke="#22c55e" stroke-width="1" fill="none"></path></g></g><mask></mask><g stroke-linecap="round" transform="translate(45.875692437726684 42.94602017812031) rotate(0 4.832411315062927 4.480315321531634)"><path d="M9.66 4.48 C9.66 4.74, 9.64 5, 9.59 5.26 C9.54 5.51, 9.47 5.77, 9.37 6.01 C9.28 6.26, 9.16 6.5, 9.02 6.72 C8.88 6.95, 8.71 7.16, 8.53 7.36 C8.35 7.56, 8.15 7.75, 7.94 7.91 C7.72 8.08, 7.49 8.23, 7.25 8.36 C7.01 8.49, 6.75 8.6, 6.49 8.69 C6.22 8.78, 5.95 8.85, 5.67 8.89 C5.4 8.94, 5.11 8.96, 4.83 8.96 C4.55 8.96, 4.27 8.94, 3.99 8.89 C3.72 8.85, 3.44 8.78, 3.18 8.69 C2.92 8.6, 2.66 8.49, 2.42 8.36 C2.17 8.23, 1.94 8.08, 1.73 7.91 C1.51 7.75, 1.31 7.56, 1.13 7.36 C0.95 7.16, 0.79 6.95, 0.65 6.72 C0.51 6.5, 0.39 6.26, 0.29 6.01 C0.2 5.77, 0.12 5.51, 0.07 5.26 C0.02 5, 0 4.74, 0 4.48 C0 4.22, 0.02 3.96, 0.07 3.7 C0.12 3.45, 0.2 3.19, 0.29 2.95 C0.39 2.7, 0.51 2.46, 0.65 2.24 C0.79 2.02, 0.95 1.8, 1.13 1.6 C1.31 1.4, 1.51 1.21, 1.73 1.05 C1.94 0.88, 2.17 0.73, 2.42 0.6 C2.66 0.47, 2.92 0.36, 3.18 0.27 C3.44 0.18, 3.72 0.11, 3.99 0.07 C4.27 0.02, 4.55 0, 4.83 0 C5.11 0, 5.4 0.02, 5.67 0.07 C5.95 0.11, 6.22 0.18, 6.49 0.27 C6.75 0.36, 7.01 0.47, 7.25 0.6 C7.49 0.73, 7.72 0.88, 7.94 1.05 C8.15 1.21, 8.35 1.4, 8.53 1.6 C8.71 1.8, 8.88 2.02, 9.02 2.24 C9.16 2.46, 9.28 2.7, 9.37 2.95 C9.47 3.19, 9.54 3.45, 9.59 3.7 C9.64 3.96, 9.65 4.35, 9.66 4.48 C9.68 4.61, 9.68 4.35, 9.66 4.48" stroke="none" stroke-width="0" fill="#22c55e"></path><path d="M9.66 4.48 C9.66 4.74, 9.64 5, 9.59 5.26 C9.54 5.51, 9.47 5.77, 9.37 6.01 C9.28 6.26, 9.16 6.5, 9.02 6.72 C8.88 6.95, 8.71 7.16, 8.53 7.36 C8.35 7.56, 8.15 7.75, 7.94 7.91 C7.72 8.08, 7.49 8.23, 7.25 8.36 C7.01 8.49, 6.75 8.6, 6.49 8.69 C6.22 8.78, 5.95 8.85, 5.67 8.89 C5.4 8.94, 5.11 8.96, 4.83 8.96 C4.55 8.96, 4.27 8.94, 3.99 8.89 C3.72 8.85, 3.44 8.78, 3.18 8.69 C2.92 8.6, 2.66 8.49, 2.42 8.36 C2.17 8.23, 1.94 8.08, 1.73 7.91 C1.51 7.75, 1.31 7.56, 1.13 7.36 C0.95 7.16, 0.79 6.95, 0.65 6.72 C0.51 6.5, 0.39 6.26, 0.29 6.01 C0.2 5.77, 0.12 5.51, 0.07 5.26 C0.02 5, 0 4.74, 0 4.48 C0 4.22, 0.02 3.96, 0.07 3.7 C0.12 3.45, 0.2 3.19, 0.29 2.95 C0.39 2.7, 0.51 2.46, 0.65 2.24 C0.79 2.02, 0.95 1.8, 1.13 1.6 C1.31 1.4, 1.51 1.21, 1.73 1.05 C1.94 0.88, 2.17 0.73, 2.42 0.6 C2.66 0.47, 2.92 0.36, 3.18 0.27 C3.44 0.18, 3.72 0.11, 3.99 0.07 C4.27 0.02, 4.55 0, 4.83 0 C5.11 0, 5.4 0.02, 5.67 0.07 C5.95 0.11, 6.22 0.18, 6.49 0.27 C6.75 0.36, 7.01 0.47, 7.25 0.6 C7.49 0.73, 7.72 0.88, 7.94 1.05 C8.15 1.21, 8.35 1.4, 8.53 1.6 C8.71 1.8, 8.88 2.02, 9.02 2.24 C9.16 2.46, 9.28 2.7, 9.37 2.95 C9.47 3.19, 9.54 3.45, 9.59 3.7 C9.64 3.96, 9.65 4.35, 9.66 4.48 C9.68 4.61, 9.68 4.35, 9.66 4.48" stroke="#22c55e" stroke-width="4" fill="none"></path></g><g stroke-linecap="round"><g transform="translate(67.58154203075901 63.21612362466385) rotate(0 -6.6036963638707675 10.667502909655013)"><path d="M0 0 C-0.04 2.32, 0.24 10.51, -0.22 13.93 C-0.68 17.36, -1.26 19.3, -2.76 20.54 C-4.26 21.77, -7.47 21.81, -9.22 21.34 C-10.96 20.86, -12.54 18.31, -13.21 17.71 M0 0 C-0.04 2.32, 0.24 10.51, -0.22 13.93 C-0.68 17.36, -1.26 19.3, -2.76 20.54 C-4.26 21.77, -7.47 21.81, -9.22 21.34 C-10.96 20.86, -12.54 18.31, -13.21 17.71" stroke="#22c55e" stroke-width="4" fill="none"></path></g></g><mask></mask><g stroke-linecap="round"><g transform="translate(67.43639708587943 65.68343820206064) rotate(0 6.603690827369064 9.107288872734898)"><path d="M0 0 C0.08 1.87, -0.01 8.25, 0.51 11.25 C1.03 14.25, 1.58 16.84, 3.12 18 C4.66 19.16, 8.04 18.84, 9.72 18.21 C11.41 17.59, 12.63 14.89, 13.21 14.22 M0 0 C0.08 1.87, -0.01 8.25, 0.51 11.25 C1.03 14.25, 1.58 16.84, 3.12 18 C4.66 19.16, 8.04 18.84, 9.72 18.21 C11.41 17.59, 12.63 14.89, 13.21 14.22" stroke="#22c55e" stroke-width="4" fill="none"></path></g></g><mask></mask><g stroke-linecap="round" transform="translate(79.8033596122259 42.14620307065161) rotate(0 4.832411315062927 4.480315321531634)"><path d="M9.66 4.48 C9.66 4.74, 9.64 5, 9.59 5.26 C9.54 5.51, 9.47 5.77, 9.37 6.01 C9.28 6.26, 9.16 6.5, 9.02 6.72 C8.88 6.95, 8.71 7.16, 8.53 7.36 C8.35 7.56, 8.15 7.75, 7.94 7.91 C7.72 8.08, 7.49 8.23, 7.25 8.36 C7.01 8.49, 6.75 8.6, 6.49 8.69 C6.22 8.78, 5.95 8.85, 5.67 8.89 C5.4 8.94, 5.11 8.96, 4.83 8.96 C4.55 8.96, 4.27 8.94, 3.99 8.89 C3.72 8.85, 3.44 8.78, 3.18 8.69 C2.92 8.6, 2.66 8.49, 2.42 8.36 C2.17 8.23, 1.94 8.08, 1.73 7.91 C1.51 7.75, 1.31 7.56, 1.13 7.36 C0.95 7.16, 0.79 6.95, 0.65 6.72 C0.51 6.5, 0.39 6.26, 0.29 6.01 C0.2 5.77, 0.12 5.51, 0.07 5.26 C0.02 5, 0 4.74, 0 4.48 C0 4.22, 0.02 3.96, 0.07 3.7 C0.12 3.45, 0.2 3.19, 0.29 2.95 C0.39 2.7, 0.51 2.46, 0.65 2.24 C0.79 2.02, 0.95 1.8, 1.13 1.6 C1.31 1.4, 1.51 1.21, 1.73 1.05 C1.94 0.88, 2.17 0.73, 2.42 0.6 C2.66 0.47, 2.92 0.36, 3.18 0.27 C3.44 0.18, 3.72 0.11, 3.99 0.07 C4.27 0.02, 4.55 0, 4.83 0 C5.11 0, 5.4 0.02, 5.67 0.07 C5.95 0.11, 6.22 0.18, 6.49 0.27 C6.75 0.36, 7.01 0.47, 7.25 0.6 C7.49 0.73, 7.72 0.88, 7.94 1.05 C8.15 1.21, 8.35 1.4, 8.53 1.6 C8.71 1.8, 8.88 2.02, 9.02 2.24 C9.16 2.46, 9.28 2.7, 9.37 2.95 C9.47 3.19, 9.54 3.45, 9.59 3.7 C9.64 3.96, 9.65 4.35, 9.66 4.48 C9.68 4.61, 9.68 4.35, 9.66 4.48" stroke="none" stroke-width="0" fill="#22c55e"></path><path d="M9.66 4.48 C9.66 4.74, 9.64 5, 9.59 5.26 C9.54 5.51, 9.47 5.77, 9.37 6.01 C9.28 6.26, 9.16 6.5, 9.02 6.72 C8.88 6.95, 8.71 7.16, 8.53 7.36 C8.35 7.56, 8.15 7.75, 7.94 7.91 C7.72 8.08, 7.49 8.23, 7.25 8.36 C7.01 8.49, 6.75 8.6, 6.49 8.69 C6.22 8.78, 5.95 8.85, 5.67 8.89 C5.4 8.94, 5.11 8.96, 4.83 8.96 C4.55 8.96, 4.27 8.94, 3.99 8.89 C3.72 8.85, 3.44 8.78, 3.18 8.69 C2.92 8.6, 2.66 8.49, 2.42 8.36 C2.17 8.23, 1.94 8.08, 1.73 7.91 C1.51 7.75, 1.31 7.56, 1.13 7.36 C0.95 7.16, 0.79 6.95, 0.65 6.72 C0.51 6.5, 0.39 6.26, 0.29 6.01 C0.2 5.77, 0.12 5.51, 0.07 5.26 C0.02 5, 0 4.74, 0 4.48 C0 4.22, 0.02 3.96, 0.07 3.7 C0.12 3.45, 0.2 3.19, 0.29 2.95 C0.39 2.7, 0.51 2.46, 0.65 2.24 C0.79 2.02, 0.95 1.8, 1.13 1.6 C1.31 1.4, 1.51 1.21, 1.73 1.05 C1.94 0.88, 2.17 0.73, 2.42 0.6 C2.66 0.47, 2.92 0.36, 3.18 0.27 C3.44 0.18, 3.72 0.11, 3.99 0.07 C4.27 0.02, 4.55 0, 4.83 0 C5.11 0, 5.4 0.02, 5.67 0.07 C5.95 0.11, 6.22 0.18, 6.49 0.27 C6.75 0.36, 7.01 0.47, 7.25 0.6 C7.49 0.73, 7.72 0.88, 7.94 1.05 C8.15 1.21, 8.35 1.4, 8.53 1.6 C8.71 1.8, 8.88 2.02, 9.02 2.24 C9.16 2.46, 9.28 2.7, 9.37 2.95 C9.47 3.19, 9.54 3.45, 9.59 3.7 C9.64 3.96, 9.65 4.35, 9.66 4.48 C9.68 4.61, 9.68 4.35, 9.66 4.48" stroke="#22c55e" stroke-width="4" fill="none"></path></g><g stroke-linecap="round"><g transform="translate(89.4853071672951 15.45130994300871) rotate(7.308662590152689 18.442040434938463 26.30635535535521)" fill-rule="evenodd"><path d="M0 0 C1.42 3.62, 6.23 15.34, 8.54 21.69 C10.86 28.05, 11.65 32.99, 13.91 38.14 C16.16 43.29, 18.23 51.52, 22.06 52.61 C25.89 53.7, 36.96 51.58, 36.88 44.69 C36.81 37.8, 27.78 18.74, 21.63 11.29 C15.48 3.85, 3.61 1.88, 0 0" stroke="none" stroke-width="0" fill="#22c55e" fill-rule="evenodd"></path><path d="M0 0 C1.42 3.62, 6.23 15.34, 8.54 21.69 C10.86 28.05, 11.65 32.99, 13.91 38.14 C16.16 43.29, 18.23 51.52, 22.06 52.61 C25.89 53.7, 36.96 51.58, 36.88 44.69 C36.81 37.8, 27.78 18.74, 21.63 11.29 C15.48 3.85, 3.61 1.88, 0 0 M0 0 C1.42 3.62, 6.23 15.34, 8.54 21.69 C10.86 28.05, 11.65 32.99, 13.91 38.14 C16.16 43.29, 18.23 51.52, 22.06 52.61 C25.89 53.7, 36.96 51.58, 36.88 44.69 C36.81 37.8, 27.78 18.74, 21.63 11.29 C15.48 3.85, 3.61 1.88, 0 0" stroke="#22c55e" stroke-width="4" fill="none"></path></g></g><mask></mask><g stroke-linecap="round"><g transform="translate(45.64070473135507 17.39461834823851) rotate(349.7058941877225 -19.588253419722605 25.927725613351868)" fill-rule="evenodd"><path d="M0 0 C-1.38 2.94, -5.46 11.8, -8.26 17.67 C-11.06 23.53, -13.94 29.49, -16.81 35.19 C-19.68 40.89, -21.77 50.34, -25.5 51.86 C-29.23 53.38, -39.7 51.36, -39.18 44.31 C-38.65 37.25, -28.9 16.93, -22.37 9.54 C-15.84 2.16, -3.73 1.59, 0 0" stroke="none" stroke-width="0" fill="#22c55e" fill-rule="evenodd"></path><path d="M0 0 C-1.38 2.94, -5.46 11.8, -8.26 17.67 C-11.06 23.53, -13.94 29.49, -16.81 35.19 C-19.68 40.89, -21.77 50.34, -25.5 51.86 C-29.23 53.38, -39.7 51.36, -39.18 44.31 C-38.65 37.25, -28.9 16.93, -22.37 9.54 C-15.84 2.16, -3.73 1.59, 0 0 M0 0 C-1.38 2.94, -5.46 11.8, -8.26 17.67 C-11.06 23.53, -13.94 29.49, -16.81 35.19 C-19.68 40.89, -21.77 50.34, -25.5 51.86 C-29.23 53.38, -39.7 51.36, -39.18 44.31 C-38.65 37.25, -28.9 16.93, -22.37 9.54 C-15.84 2.16, -3.73 1.59, 0 0" stroke="#22c55e" stroke-width="4" fill="none"></path></g></g><mask></mask><g stroke-linecap="round"><g transform="translate(40.4621927161279 14.514701621317727) rotate(0 27.088214074081407 -1.9867522697791173)"><path d="M0 0 C0.85 -0.46, 2.21 -2.03, 5.08 -2.73 C7.96 -3.44, 12.32 -3.95, 17.26 -4.23 C22.2 -4.51, 29.55 -4.59, 34.74 -4.44 C39.92 -4.3, 45.13 -4.19, 48.37 -3.38 C51.61 -2.56, 53.21 -0.17, 54.18 0.47 M0 0 C0.85 -0.46, 2.21 -2.03, 5.08 -2.73 C7.96 -3.44, 12.32 -3.95, 17.26 -4.23 C22.2 -4.51, 29.55 -4.59, 34.74 -4.44 C39.92 -4.3, 45.13 -4.19, 48.37 -3.38 C51.61 -2.56, 53.21 -0.17, 54.18 0.47" stroke="#22c55e" stroke-width="4" fill="none"></path></g></g><mask></mask><g stroke-linecap="round"><g transform="translate(23.323222703336796 70.58707041113212) rotate(0 43.35209562292039 13.17171693848286)"><path d="M0 0 C0.48 0.8, 1.26 2.12, 2.86 4.81 C4.47 7.5, 6.49 12.75, 9.62 16.15 C12.75 19.55, 15.86 23.27, 21.65 25.2 C27.43 27.13, 36.94 27.74, 44.33 27.72 C51.71 27.7, 60.57 27.07, 65.97 25.08 C71.38 23.1, 73.88 19.09, 76.74 15.81 C79.6 12.52, 81.49 8.25, 83.15 5.38 C84.81 2.52, 86.11 -0.25, 86.7 -1.37 M0 0 C0.48 0.8, 1.26 2.12, 2.86 4.81 C4.47 7.5, 6.49 12.75, 9.62 16.15 C12.75 19.55, 15.86 23.27, 21.65 25.2 C27.43 27.13, 36.94 27.74, 44.33 27.72 C51.71 27.7, 60.57 27.07, 65.97 25.08 C71.38 23.1, 73.88 19.09, 76.74 15.81 C79.6 12.52, 81.49 8.25, 83.15 5.38 C84.81 2.52, 86.11 -0.25, 86.7 -1.37" stroke="#22c55e" stroke-width="4" fill="none"></path></g></g><mask></mask>
</svg>